<svg xmlns="http://www.w3.org/2000/svg" width="227" height="227" viewBox="0 0 227 227" fill="none" xmlns:xlink="http://www.w3.org/1999/xlink">
<g clip-path="url(#clip0_307_1014)">
<path d="M213.16 0H13.61C6.0934 0 0 6.0934 0 13.61V213.16C0 220.677 6.0934 226.77 13.61 226.77H213.16C220.677 226.77 226.77 220.677 226.77 213.16V13.61C226.77 6.0934 220.677 0 213.16 0Z" fill="#E30613"/>
<path d="M210.9 9.06995H15.8703C12.1148 9.06995 9.07031 12.1144 9.07031 15.8699V210.9C9.07031 214.655 12.1148 217.7 15.8703 217.7H210.9C214.656 217.7 217.7 214.655 217.7 210.9V15.8699C217.7 12.1144 214.656 9.06995 210.9 9.06995Z" fill="#554596"/>
<path d="M111.01 182.96C114.766 182.96 117.81 179.916 117.81 176.16C117.81 172.404 114.766 169.36 111.01 169.36C107.254 169.36 104.21 172.404 104.21 176.16C104.21 179.916 107.254 182.96 111.01 182.96Z" fill="#009BA4"/>
<path d="M97.2596 74.87C93.4196 74.87 90.3096 75.99 88.2596 78.1C85.7296 80.72 69.0496 104.34 59.1496 118.98C55.9896 109.97 51.2296 94.46 48.3996 75.94C48.2096 74.68 48.0596 73.28 47.9096 71.93C47.8096 70.96 47.6996 70 47.5796 69.08C47.0896 65.24 44.1096 62.66 40.1796 62.66C36.0496 62.66 31.9496 65.32 29.6996 67.6C27.4296 69.9 26.2496 72.46 26.2796 75.01C26.2796 75.4 26.3296 76.03 26.7896 80.75C26.8696 81.56 26.9296 82.18 26.9396 82.34C27.8696 93.41 30.9496 106.49 31.0796 107.04C31.3296 108.05 36.8096 129.92 42.8596 145.96C39.7096 151.76 36.7396 157.69 33.8496 163.45C27.1296 176.85 20.1896 190.7 11.0896 202.69C10.4496 203.53 9.76957 204.34 9.05957 205.16V210.89C9.05957 214.63 12.1196 217.69 15.8596 217.69H47.7896C50.1096 191.8 62.5196 166.15 73.9996 144.11C83.7696 125.37 97.0996 108.01 110 91.22L110.84 90.13C112.79 87.59 113.14 84.56 111.8 81.84C109.54 77.26 102.77 74.86 97.2496 74.86L97.2596 74.87Z" fill="white"/>
<path d="M91.7099 81.44C89.0799 84.15 65.6499 117.48 57.9899 129.41C57.8599 129.18 48.2299 106.59 43.6499 76.67C43.2999 74.39 43.0999 71.92 42.8199 69.69C42.1099 64.13 31.0199 70.15 31.0799 74.95C31.0799 75.45 31.6799 81.38 31.7299 81.95C32.6399 92.79 35.7599 105.94 35.7599 105.94C35.7599 105.94 41.8299 130.27 48.1499 146.32C37.1799 166.16 28.6799 187.48 14.9299 205.6C13.1299 207.98 11.0699 210.1 9.16992 212.3C9.63992 215.34 12.2599 217.7 15.4299 217.7H42.9799C45.2599 191.07 57.5699 165.31 69.7599 141.9C79.9399 122.37 94.0299 104.17 107.05 87.22C111.4 81.55 95.9799 77.04 91.7199 81.44H91.7099Z" fill="#E30613"/>
<path d="M202.84 105.54C200.94 103.44 198.41 102.01 195.65 101.34C195.01 101.18 194.4 101 193.96 100.78C192.71 100.17 191.64 99.22 190.34 98.72C188.45 98 185.96 98.13 184.9 96.4C184.52 95.78 184.43 95.03 184.08 94.39C183.68 93.64 182.97 93.1 182.51 92.38C181.56 90.89 181.73 88.74 180.38 87.61C178.99 86.44 176.84 87.05 175.14 86.42C172.43 85.42 171.48 81.62 168.7 80.83C167.77 80.57 166.65 80.64 166.01 79.91C165.77 79.64 165.64 79.29 165.4 79.02C164.78 78.33 163.69 78.38 162.79 78.61C161.89 78.84 160.95 79.19 160.07 78.89C159.68 78.76 159.33 78.5 158.92 78.4C157.85 78.14 156.6 78.99 155.71 78.35C155.16 77.95 154.97 77.08 154.31 76.92C153.99 76.84 153.66 76.97 153.35 77.07C152.14 77.47 150.82 77.56 149.56 77.33C149.83 77 149.52 76.47 149.11 76.36C148.7 76.26 148.28 76.43 147.89 76.6C146.95 77.02 146.01 77.44 145.07 77.86C144.75 78 144.42 78.16 144.22 78.44C143.92 78.87 144 79.46 143.8 79.95C143.57 80.51 142.92 80.86 142.33 80.75C141.76 80.65 140.74 81.45 138.81 79.53C138.57 79.29 138.27 79.12 137.95 79.05C137.08 78.87 136.05 79.45 135 79.95C134.54 80.17 133.99 80.11 133.57 79.8C132.98 79.36 132.43 78.87 131.99 78.28C131.35 77.41 131 76.25 131.35 75.22C131.5 74.79 131.76 74.41 131.94 73.99C132.22 73.35 132.3 72.64 132.39 71.94C132.5 70.95 132.61 69.9 132.15 69.02C131.43 67.63 129.65 67.25 128.11 67.02C127.77 66.97 127.4 66.92 127.1 67.07C126.87 67.18 126.69 67.39 126.45 67.48C125.87 67.69 125.28 67 125.34 66.38C125.39 65.76 125.84 65.26 126.26 64.8C126.68 64.34 127.11 63.82 127.13 63.21C127.14 62.81 126.98 62.42 126.99 62.01C127.03 60.94 128.3 60.21 128.32 59.14C128.34 58.25 127.41 57.57 126.51 57.52C125.62 57.47 124.77 57.88 123.97 58.28C123.29 58.62 122.58 58.99 122.22 59.66C121.88 60.3 121.91 61.13 121.41 61.66C121.07 62.01 120.57 62.14 120.09 62.24C119.28 62.42 118.48 62.61 117.67 62.79C117.29 62.88 116.9 62.96 116.52 62.9C116.02 62.82 115.59 62.49 115.22 62.13C113.66 60.62 112.81 58.4 112.97 56.24C113.08 54.67 113.69 53.18 114.47 51.82C114.86 51.14 115.31 50.43 115.31 49.64C115.31 49.15 115.13 48.66 115.18 48.17C115.25 47.49 115.75 46.94 116.27 46.49C117.58 45.34 119.13 44.48 120.8 43.99C121.29 43.85 121.82 43.73 122.29 43.91C122.61 44.03 122.87 44.27 123.17 44.44C125.52 45.81 128.54 42.6 131.02 43.7C131.36 43.85 131.68 44.08 132.05 44.11C132.71 44.16 133.25 43.57 133.9 43.44C134.55 43.32 135.21 43.69 135.58 44.23C135.95 44.77 136.08 45.44 136.12 46.1C136.15 46.66 136.12 47.23 136.21 47.78C136.31 48.38 136.54 48.95 136.77 49.52C137.18 50.51 137.58 51.51 137.99 52.5C139.03 52.3 139.88 51.35 139.96 50.3C140.04 49.31 139.51 48.37 139.49 47.38C139.47 46.38 139.99 45.43 139.98 44.42C139.98 43.44 139.47 42.45 139.76 41.5C139.89 41.06 140.19 40.68 140.32 40.23C140.38 40.04 140.4 39.84 140.41 39.64C140.41 38.73 141 37.91 141.86 37.62C141.95 37.59 142.03 37.56 142.12 37.54C143.2 37.23 144.38 37.07 145.22 36.34C145.69 35.93 146.01 35.38 146.48 34.98C147.27 34.32 148.49 34.07 148.9 33.13C149.21 32.43 148.97 31.5 149.47 30.93C149.79 30.57 150.33 30.46 150.67 30.11C151.09 29.68 151.1 29.02 151.25 28.44C151.6 27.03 152.79 26.01 153.92 25.1C155.38 23.91 156.93 22.68 158.78 22.32C160.34 22.01 162.37 22.13 163.03 20.69C163.27 20.18 163.25 19.57 163.52 19.08C163.74 18.67 164.14 18.4 164.52 18.13C166.08 17.05 167.68 15.95 169.51 15.47C169.98 15.35 170.69 15.47 170.64 15.94L169.73 16.65C170.9 16.8 172.12 16.54 173.13 15.92C173.28 15.83 173.44 15.72 173.53 15.57C173.69 15.32 173.65 15 173.65 14.71C173.63 13.64 174.05 12.62 174.23 11.56C174.34 10.89 174.32 10.14 174.07 9.53003C174 9.37003 173.97 9.20003 173.97 9.03003H92.83C92.6 11.11 92.21 13.16 91.17 14.95C89.99 16.98 88.09 18.49 86.85 20.48C84.91 23.6 84.82 27.49 84.79 31.16C84.79 32.2 84.79 33.28 85.19 34.24C85.62 35.23 86.43 35.98 87.1 36.83C89.28 39.63 89.73 43.35 90.34 46.85C90.78 49.38 91.86 52.67 93.98 55.15C94.58 55.85 95.71 55.15 95.34 54.29C93.82 50.73 92.47 45.31 92.45 41.2C92.45 40.7 93.18 40.63 93.27 41.13C93.72 43.52 94.52 46.76 95.73 48.74C97.23 51.21 99.05 53.62 99.56 56.46C99.74 57.45 99.72 58.47 99.91 59.46C100.7 63.43 104.73 65.87 108.59 67.08C112.45 68.29 116.51 69.03 119.93 71.19C120.55 71.58 121.73 72.18 122.64 72.32C124.67 72.65 126.01 74.54 127.11 76.27C127.64 77.09 128.16 77.92 128.68 78.74C129.16 79.5 129.7 80.3 130.54 80.6C131.07 80.79 131.77 80.82 132.02 81.33C132.12 81.53 132.12 81.76 132.15 81.97C132.28 82.81 132.96 83.54 133.79 83.72C134.62 83.9 135.54 83.53 136.01 82.82C136.26 82.43 136.39 81.97 136.72 81.63C136.94 81.41 137.41 81.24 137.59 81.38C138.91 82.34 138.81 85.81 139.81 87.52C140.09 87.99 140.37 88.49 140.36 89.04C140.35 89.68 139.94 90.23 139.56 90.74C137.97 92.87 136.63 95.19 135.55 97.62C135.07 98.7 134.64 99.85 134.76 101.03C134.83 101.73 135.09 102.41 135.05 103.12C134.98 104.28 134.08 105.35 134.34 106.48C134.55 107.4 135.45 107.97 136.02 108.72C136.89 109.85 137.01 111.36 137.27 112.76C138.01 116.73 140.29 120.47 143.71 122.63C144.89 123.38 146.19 123.93 147.32 124.75C148.94 125.93 150.13 127.61 151.29 129.25C151.87 130.08 152.46 130.91 152.87 131.83C154.93 136.5 151.97 141.94 152.79 146.98C153.08 148.77 153.84 150.44 154.23 152.21C155.39 157.45 153.25 163.16 155.1 168.2C155.64 169.68 156.5 171.02 157.2 172.43C158.17 174.4 158.83 176.52 159.14 178.69C159.22 179.22 159.23 179.76 159.16 180.29C158.75 183.75 161.19 186.31 163.01 188.57C164.4 190.29 165.83 192.05 167.69 193.26C170.62 195.17 174.28 195.51 177.78 195.59C176.44 193.99 174.49 193.05 172.8 191.81C171.11 190.58 169.55 188.77 169.65 186.68C169.7 185.54 170.25 184.49 170.69 183.45C171.13 182.4 171.62 181.18 171.16 180.13C170.79 179.3 170.05 178.91 169.29 178.83C168.55 178.75 168.08 178 168.33 177.3C169.19 174.91 169.75 172.14 168.81 170.04C168.69 169.77 168.81 169.45 169.1 169.35C170.31 168.9 171.21 167.16 172.14 166.23C172.63 165.74 173.34 165.55 173.97 165.24C175.85 164.33 177.04 162.19 176.83 160.11C176.78 159.63 176.67 159.14 176.8 158.68C177.09 157.67 178.32 157.34 179.32 157C184.06 155.35 186.33 149.97 187.31 145.05C187.47 144.26 187.62 143.43 188.08 142.76C188.51 142.14 189.18 141.71 189.65 141.11C190.1 140.52 190.34 139.8 190.76 139.19C192.32 136.94 195.88 136.88 197.51 134.68C198.57 133.25 198.54 131.29 198.15 129.56C197.77 127.83 197.09 126.14 197.01 124.37C196.78 119.19 201.46 115.33 204.08 110.86C204.37 110.36 204.65 109.83 204.69 109.25C204.74 108.61 204.48 107.98 204.19 107.41C203.89 106.81 203.39 106.16 202.8 105.52L202.84 105.54Z" fill="white"/>
<path d="M162.559 111.87C162.259 111.31 161.769 110.89 161.159 110.7C160.549 110.51 159.899 110.57 159.339 110.87C158.779 111.17 158.359 111.66 158.169 112.27C157.979 112.88 158.039 113.53 158.339 114.09C159.049 115.45 159.829 116.88 160.649 118.34C160.829 118.67 161.099 118.95 161.409 119.16C161.809 119.43 162.269 119.56 162.729 119.56C163.129 119.56 163.529 119.46 163.899 119.25C164.459 118.94 164.859 118.43 165.029 117.82C165.199 117.21 165.129 116.56 164.819 116.01C164.019 114.59 163.269 113.2 162.569 111.87H162.559Z" fill="#009BA4"/>
<path d="M186.789 163.56C187.439 164.99 188.049 166.44 188.629 167.87C188.809 168.31 189.109 168.69 189.509 168.96C189.909 169.23 190.369 169.36 190.829 169.36C191.129 169.36 191.439 169.3 191.729 169.18C192.319 168.94 192.779 168.48 193.029 167.9C193.279 167.32 193.279 166.66 193.039 166.07C192.439 164.59 191.799 163.09 191.129 161.6C190.589 160.4 189.169 159.87 187.969 160.4C187.389 160.66 186.939 161.13 186.719 161.73C186.489 162.33 186.509 162.98 186.769 163.56H186.789Z" fill="#009BA4"/>
<path d="M172.07 128.21C171.24 126.86 170.41 125.51 169.59 124.16C169.26 123.62 168.74 123.23 168.12 123.08C167.5 122.93 166.86 123.03 166.31 123.36C165.19 124.04 164.82 125.51 165.51 126.64C166.34 128 167.17 129.36 168.01 130.72C168.19 131.01 168.43 131.26 168.71 131.45C169.11 131.72 169.57 131.85 170.04 131.85C170.48 131.85 170.91 131.73 171.3 131.5C172.42 130.81 172.77 129.33 172.07 128.21Z" fill="#009BA4"/>
<path d="M177.099 136.31C176.759 135.77 176.239 135.39 175.619 135.24C174.999 135.1 174.359 135.2 173.819 135.54C172.699 136.23 172.359 137.71 173.049 138.83C173.889 140.18 174.719 141.53 175.549 142.88C175.729 143.18 175.969 143.43 176.259 143.62C176.659 143.89 177.119 144.02 177.589 144.02C178.019 144.02 178.449 143.9 178.829 143.67C179.379 143.34 179.759 142.81 179.909 142.19C180.059 141.57 179.959 140.93 179.629 140.39C178.799 139.03 177.959 137.67 177.119 136.31H177.099Z" fill="#009BA4"/>
<path d="M183.419 156.01C183.819 156.28 184.279 156.41 184.739 156.41C185.129 156.41 185.509 156.32 185.869 156.13C187.029 155.51 187.469 154.06 186.849 152.9C186.119 151.53 185.359 150.15 184.509 148.67C183.859 147.53 182.399 147.12 181.259 147.77C180.709 148.09 180.309 148.6 180.139 149.21C179.969 149.83 180.049 150.47 180.359 151.02C181.179 152.47 181.929 153.82 182.639 155.14C182.829 155.49 183.099 155.79 183.419 156V156.01Z" fill="#009BA4"/>
<path d="M199.839 201.48C198.529 201.62 197.579 202.81 197.729 204.11C197.899 205.63 198.039 207.2 198.159 208.78C198.219 209.52 198.599 210.18 199.219 210.59C199.609 210.85 200.079 210.99 200.549 210.99C200.609 210.99 200.669 210.99 200.729 210.99C201.369 210.94 201.949 210.65 202.359 210.17C202.769 209.69 202.979 209.07 202.929 208.43C202.809 206.83 202.659 205.2 202.479 203.6C202.339 202.29 201.149 201.32 199.849 201.49L199.839 201.48Z" fill="#009BA4"/>
<path d="M197.329 187.4C196.709 187.53 196.169 187.9 195.829 188.44C195.489 188.98 195.369 189.61 195.499 190.24C195.819 191.76 196.129 193.3 196.399 194.84C196.509 195.49 196.879 196.04 197.419 196.41C197.819 196.67 198.269 196.81 198.739 196.81C198.879 196.81 199.019 196.8 199.159 196.77C200.459 196.54 201.319 195.3 201.089 194C200.799 192.38 200.489 190.78 200.159 189.24C199.889 187.96 198.619 187.13 197.329 187.41V187.4Z" fill="#009BA4"/>
<path d="M195.189 173.8C194.619 173.51 193.979 173.46 193.369 173.66C192.759 173.86 192.269 174.28 191.979 174.85C191.689 175.42 191.639 176.07 191.839 176.67C192.319 178.16 192.789 179.67 193.209 181.15C193.359 181.69 193.709 182.16 194.179 182.47C194.579 182.73 195.039 182.87 195.499 182.87C195.719 182.87 195.939 182.84 196.159 182.78C196.769 182.6 197.279 182.2 197.589 181.64C197.899 181.08 197.969 180.44 197.799 179.82C197.349 178.25 196.869 176.69 196.379 175.18C196.179 174.57 195.759 174.08 195.189 173.79V173.8Z" fill="#009BA4"/>
<path d="M150.55 64.5801C150.75 64.7201 150.98 64.8201 151.21 64.8901C151.43 64.9501 151.66 64.9901 151.88 64.9901C152.28 64.9901 152.67 64.8901 153.03 64.6901C153.59 64.3801 153.99 63.8801 154.17 63.2601C154.59 61.8201 155.08 60.3801 155.64 58.9701C156.13 57.7501 155.53 56.3601 154.31 55.8701C153.09 55.3801 151.69 55.9801 151.21 57.2101C150.59 58.7701 150.05 60.3601 149.59 61.9401C149.3 62.9401 149.69 64.0101 150.56 64.5901L150.55 64.5801Z" fill="#009BA4"/>
<path d="M149.91 79.1C150.55 79.1 151.14 78.85 151.59 78.4C152.04 77.95 152.29 77.35 152.29 76.71C152.29 75.19 152.36 73.66 152.5 72.17C152.56 71.53 152.37 70.91 151.96 70.42C151.55 69.93 150.98 69.63 150.34 69.57C149.71 69.52 149.09 69.71 148.6 70.11C148.11 70.52 147.81 71.09 147.75 71.73C147.6 73.36 147.53 75.03 147.52 76.7C147.52 77.5 147.92 78.24 148.58 78.69C148.97 78.95 149.43 79.09 149.9 79.09L149.91 79.1Z" fill="#009BA4"/>
<path d="M165.45 40.53C165.85 40.8 166.31 40.93 166.77 40.93C167.38 40.93 167.98 40.7 168.44 40.26C169.53 39.2 170.68 38.16 171.86 37.18C172.35 36.77 172.65 36.19 172.7 35.56C172.75 34.92 172.56 34.31 172.15 33.82C171.3 32.81 169.8 32.68 168.79 33.53C167.52 34.6 166.29 35.71 165.12 36.84C164.66 37.28 164.4 37.88 164.39 38.52C164.39 39.16 164.62 39.76 165.06 40.22C165.18 40.34 165.31 40.45 165.45 40.55V40.53Z" fill="#009BA4"/>
<path d="M158.5 103.43C157.87 101.98 157.28 100.53 156.75 99.12C156.52 98.52 156.08 98.05 155.5 97.79C154.92 97.53 154.27 97.51 153.67 97.73C152.44 98.19 151.81 99.58 152.28 100.81C152.84 102.29 153.46 103.82 154.12 105.33C154.3 105.75 154.6 106.11 154.98 106.36C155.38 106.63 155.84 106.76 156.3 106.76C156.62 106.76 156.95 106.69 157.25 106.56C158.46 106.03 159.01 104.63 158.49 103.42L158.5 103.43Z" fill="#009BA4"/>
<path d="M176.679 31.7001C177.079 31.9701 177.539 32.1001 178.009 32.1001C178.479 32.1001 178.899 31.9801 179.299 31.7201C180.569 30.9101 181.909 30.1101 183.269 29.3501C183.829 29.0401 184.229 28.5301 184.409 27.9201C184.589 27.3101 184.509 26.6601 184.199 26.1001C183.889 25.5401 183.379 25.1401 182.769 24.9601C182.159 24.7901 181.509 24.8601 180.949 25.1701C179.519 25.9601 178.099 26.8101 176.719 27.6901C175.609 28.4001 175.289 29.8801 175.989 30.9901C176.169 31.2701 176.399 31.5101 176.679 31.6901V31.7001Z" fill="#009BA4"/>
<path d="M153.709 92.11C154.039 91.56 154.139 90.92 153.989 90.3C153.619 88.79 153.309 87.27 153.059 85.81C152.839 84.51 151.609 83.63 150.309 83.85C149.009 84.07 148.129 85.3 148.349 86.6C148.619 88.19 148.949 89.82 149.339 91.44C149.479 92.02 149.839 92.53 150.339 92.86C150.739 93.12 151.199 93.26 151.669 93.26C151.859 93.26 152.049 93.24 152.229 93.19C152.849 93.04 153.369 92.66 153.699 92.11H153.709Z" fill="#009BA4"/>
<path d="M156.45 51.6L156.48 51.62C156.87 51.87 157.31 51.99 157.75 51.99C158.54 51.99 159.32 51.59 159.77 50.87C160.02 50.47 160.28 50.07 160.55 49.67C161.13 48.8 161.74 47.94 162.37 47.11C163.16 46.06 162.95 44.56 161.9 43.76C160.84 42.98 159.34 43.18 158.56 44.23C157.88 45.13 157.22 46.06 156.58 47.01C156.29 47.44 156.01 47.88 155.73 48.32C155.04 49.42 155.34 50.85 156.45 51.59V51.6Z" fill="#009BA4"/>
<path d="M203.02 20.85C203.42 21.12 203.87 21.25 204.34 21.25C204.52 21.25 204.69 21.23 204.86 21.19C206.37 20.85 207.9 20.56 209.41 20.32C210.71 20.11 211.6 18.88 211.39 17.58C211.18 16.28 209.96 15.39 208.65 15.6C207.05 15.86 205.43 16.17 203.83 16.52C202.54 16.8 201.73 18.08 202.02 19.37C202.15 19.97 202.51 20.5 203.03 20.84L203.02 20.85Z" fill="#009BA4"/>
<path d="M189.38 25.1301C189.78 25.4001 190.24 25.5301 190.71 25.5301C191.02 25.5301 191.32 25.4701 191.62 25.3501C193.04 24.7701 194.5 24.2201 195.95 23.7101C196.55 23.5001 197.04 23.0701 197.32 22.5001C197.6 21.9301 197.64 21.2801 197.43 20.6801C197 19.4401 195.64 18.7801 194.39 19.2001C192.84 19.7401 191.29 20.3201 189.8 20.9301C188.58 21.4301 188 22.8301 188.5 24.0501C188.68 24.4901 188.99 24.8601 189.38 25.1301Z" fill="#009BA4"/>
<path d="M44.1604 41.0499C47.9159 41.0499 50.9604 38.0055 50.9604 34.25C50.9604 30.4944 47.9159 27.45 44.1604 27.45C40.4048 27.45 37.3604 30.4944 37.3604 34.25C37.3604 38.0055 40.4048 41.0499 44.1604 41.0499Z" fill="#009BA4"/>
</g>
<defs>
<clipPath id="clip0_307_1014">
<rect width="226.77" height="226.77" fill="white"/>
</clipPath>
</defs>
</svg>